<svg width="116" height="41" viewBox="0 0 116 41" fill="none" xmlns="http://www.w3.org/2000/svg">
<path d="M91.4185 30.01L85.6953 30.01L85.6953 10.2723L91.4185 10.2723L91.4185 30.01Z" fill="#03157A"/>
<path d="M48.5119 37.4942C46.5063 37.4942 44.9777 37.1274 43.926 36.3936L45.4668 32.248C46.1272 32.7127 46.9343 32.945 47.8882 32.945C48.6219 32.945 49.1967 32.7004 49.6125 32.2113C50.0283 31.7466 50.2362 31.0373 50.2362 30.0834V10.3457H55.9594V30.0467C55.9594 32.3458 55.299 34.1557 53.9783 35.4764C52.682 36.8216 50.8599 37.4942 48.5119 37.4942Z" fill="#03157A"/>
<path d="M20.8016 20.288C20.8016 20.3614 20.765 20.875 20.6916 21.8288H5.75989C6.02893 23.0517 6.66484 24.0179 7.66763 24.7271C8.67041 25.4364 9.91777 25.7911 11.4097 25.7911C12.437 25.7911 13.3419 25.6443 14.1246 25.3508C14.9317 25.0329 15.6777 24.5437 16.3625 23.8833L19.4075 27.1852C17.5487 29.313 14.8339 30.377 11.263 30.377C9.03728 30.377 7.0684 29.9489 5.35633 29.0929C3.64426 28.2124 2.32352 27.0017 1.39411 25.4609C0.464705 23.92 0 22.1713 0 20.2146C0 18.2824 0.452476 16.5459 1.35743 15.005C2.28684 13.4397 3.54643 12.229 5.13621 11.373C6.75044 10.4925 8.54812 10.0522 10.5292 10.0522C12.4614 10.0522 14.2102 10.468 15.7755 11.2996C17.3408 12.1312 18.5637 13.3296 19.4442 14.895C20.3492 16.4358 20.8016 18.2335 20.8016 20.288ZM10.5659 14.3813C9.26963 14.3813 8.18125 14.7482 7.30075 15.482C6.42026 16.2157 5.88218 17.2185 5.68652 18.4903H15.4086C15.213 17.2429 14.6749 16.2524 13.7944 15.5186C12.9139 14.7604 11.8377 14.3813 10.5659 14.3813Z" fill="#03157A"/>
<path d="M42.1496 11.8865C40.6576 10.4191 37.7156 9.53857 34.7806 9.53857C31.2953 9.53857 28.6049 10.4191 27.113 11.8865C25.5966 13.354 24.8384 15.5308 24.8384 18.4169V29.7165H30.5616V19.2974C30.5616 17.732 30.4882 16.7293 31.4788 15.592C32.4693 14.4547 36.1715 13.9788 37.7156 15.592C38.6968 16.617 38.701 17.732 38.701 19.2974V29.7165H44.4242V18.4169C44.4242 15.5308 43.666 13.354 42.1496 11.8865Z" fill="#03157A"/>
<path d="M113.725 11.8865C112.233 10.4191 109.291 9.53857 106.356 9.53857C102.871 9.53857 100.181 10.4191 98.6887 11.8865C97.1723 13.354 96.4141 15.5308 96.4141 18.4169V29.7165H102.137V19.2974C102.137 17.732 102.064 16.7293 103.054 15.592C104.045 14.4547 107.747 13.9788 109.291 15.592C110.272 16.617 110.277 17.732 110.277 19.2974V29.7165H116V18.4169C116 15.5308 115.242 13.354 113.725 11.8865Z" fill="#03157A"/>
<path fill-rule="evenodd" clip-rule="evenodd" d="M70.5477 30.45C76.3223 30.45 81.0035 25.7688 81.0035 19.9942C81.0035 14.2196 76.3223 9.53833 70.5477 9.53833C64.773 9.53833 60.0918 14.2196 60.0918 19.9942C60.0918 25.7688 64.773 30.45 70.5477 30.45ZM70.7326 25.6805C73.7719 25.6805 76.2357 23.2167 76.2357 20.1774C76.2357 17.1381 73.7719 14.6743 70.7326 14.6743C67.6933 14.6743 65.2295 17.1381 65.2295 20.1774C65.2295 23.2167 67.6933 25.6805 70.7326 25.6805Z" fill="#03157A"/>
<circle cx="53.1238" cy="3.66872" r="3.66872" fill="url(#paint0_linear_340_2433)"/>
<circle cx="88.3425" cy="36.687" r="3.66872" transform="rotate(-180 88.3425 36.687)" fill="url(#paint1_linear_340_2433)"/>
<defs>
<linearGradient id="paint0_linear_340_2433" x1="49.5901" y1="3.66872" x2="56.7925" y2="3.66872" gradientUnits="userSpaceOnUse">
<stop offset="0.0150888" stop-color="#174FF1"/>
<stop offset="1" stop-color="#6ACEE2"/>
</linearGradient>
<linearGradient id="paint1_linear_340_2433" x1="84.8088" y1="36.687" x2="92.0112" y2="36.687" gradientUnits="userSpaceOnUse">
<stop offset="0.0150888" stop-color="#174FF1"/>
<stop offset="1" stop-color="#6ACEE2"/>
</linearGradient>
</defs>
</svg>
